<mxfile host="65bd71144e">
    <diagram id="9DKgVahRmi7qY-blzzaC" name="Page-1">
        <mxGraphModel dx="2776" dy="915" grid="1" gridSize="10" guides="1" tooltips="1" connect="1" arrows="1" fold="1" page="1" pageScale="1" pageWidth="850" pageHeight="1100" math="0" shadow="0">
            <root>
                <mxCell id="0"/>
                <mxCell id="1" parent="0"/>
                <mxCell id="9" value="IRenderable" style="swimlane;fontStyle=1;align=center;verticalAlign=top;childLayout=stackLayout;horizontal=1;startSize=26;horizontalStack=0;resizeParent=1;resizeParentMax=0;resizeLast=0;collapsible=1;marginBottom=0;fontFamily=Lucida Console;" parent="1" vertex="1">
                    <mxGeometry x="450" y="180" width="270" height="60" as="geometry"/>
                </mxCell>
                <mxCell id="11" value="" style="line;strokeWidth=1;fillColor=none;align=left;verticalAlign=middle;spacingTop=-1;spacingLeft=3;spacingRight=3;rotatable=0;labelPosition=right;points=[];portConstraint=eastwest;strokeColor=inherit;fontFamily=Lucida Console;" parent="9" vertex="1">
                    <mxGeometry y="26" width="270" height="8" as="geometry"/>
                </mxCell>
                <mxCell id="12" value="draw(): public virtual void = 0" style="text;strokeColor=none;fillColor=none;align=left;verticalAlign=top;spacingLeft=4;spacingRight=4;overflow=hidden;rotatable=0;points=[[0,0.5],[1,0.5]];portConstraint=eastwest;fontFamily=Lucida Console;" parent="9" vertex="1">
                    <mxGeometry y="34" width="270" height="26" as="geometry"/>
                </mxCell>
                <mxCell id="13" value="" style="endArrow=block;dashed=1;endFill=0;endSize=12;html=1;fontFamily=Lucida Console;" parent="1" source="14" target="9" edge="1">
                    <mxGeometry width="160" relative="1" as="geometry">
                        <mxPoint x="230" y="510" as="sourcePoint"/>
                        <mxPoint x="340" y="549" as="targetPoint"/>
                    </mxGeometry>
                </mxCell>
                <mxCell id="14" value="Node" style="swimlane;fontStyle=1;align=center;verticalAlign=top;childLayout=stackLayout;horizontal=1;startSize=26;horizontalStack=0;resizeParent=1;resizeParentMax=0;resizeLast=0;collapsible=1;marginBottom=0;fontFamily=Lucida Console;" parent="1" vertex="1">
                    <mxGeometry x="20" y="150" width="280" height="190" as="geometry"/>
                </mxCell>
                <mxCell id="15" value="parent: weak_ptr&lt;Node&gt;" style="text;strokeColor=none;fillColor=none;align=left;verticalAlign=top;spacingLeft=4;spacingRight=4;overflow=hidden;rotatable=0;points=[[0,0.5],[1,0.5]];portConstraint=eastwest;fontFamily=Lucida Console;" parent="14" vertex="1">
                    <mxGeometry y="26" width="280" height="26" as="geometry"/>
                </mxCell>
                <mxCell id="18" value="children: vector&lt;shared_ptr&lt;Node&gt;&gt;" style="text;strokeColor=none;fillColor=none;align=left;verticalAlign=top;spacingLeft=4;spacingRight=4;overflow=hidden;rotatable=0;points=[[0,0.5],[1,0.5]];portConstraint=eastwest;fontFamily=Lucida Console;" parent="14" vertex="1">
                    <mxGeometry y="52" width="280" height="26" as="geometry"/>
                </mxCell>
                <mxCell id="19" value="transform_local: mat4" style="text;strokeColor=none;fillColor=none;align=left;verticalAlign=top;spacingLeft=4;spacingRight=4;overflow=hidden;rotatable=0;points=[[0,0.5],[1,0.5]];portConstraint=eastwest;fontFamily=Lucida Console;" parent="14" vertex="1">
                    <mxGeometry y="78" width="280" height="26" as="geometry"/>
                </mxCell>
                <mxCell id="20" value="transform_world: mat4" style="text;strokeColor=none;fillColor=none;align=left;verticalAlign=top;spacingLeft=4;spacingRight=4;overflow=hidden;rotatable=0;points=[[0,0.5],[1,0.5]];portConstraint=eastwest;fontFamily=Lucida Console;" parent="14" vertex="1">
                    <mxGeometry y="104" width="280" height="26" as="geometry"/>
                </mxCell>
                <mxCell id="16" value="" style="line;strokeWidth=1;fillColor=none;align=left;verticalAlign=middle;spacingTop=-1;spacingLeft=3;spacingRight=3;rotatable=0;labelPosition=right;points=[];portConstraint=eastwest;strokeColor=inherit;fontFamily=Lucida Console;" parent="14" vertex="1">
                    <mxGeometry y="130" width="280" height="8" as="geometry"/>
                </mxCell>
                <mxCell id="17" value="draw(): virtual void override" style="text;strokeColor=none;fillColor=none;align=left;verticalAlign=top;spacingLeft=4;spacingRight=4;overflow=hidden;rotatable=0;points=[[0,0.5],[1,0.5]];portConstraint=eastwest;fontFamily=Lucida Console;" parent="14" vertex="1">
                    <mxGeometry y="138" width="280" height="26" as="geometry"/>
                </mxCell>
                <mxCell id="21" value="updateTransdform(): void" style="text;strokeColor=none;fillColor=none;align=left;verticalAlign=top;spacingLeft=4;spacingRight=4;overflow=hidden;rotatable=0;points=[[0,0.5],[1,0.5]];portConstraint=eastwest;fontFamily=Lucida Console;" parent="14" vertex="1">
                    <mxGeometry y="164" width="280" height="26" as="geometry"/>
                </mxCell>
                <mxCell id="22" value="" style="endArrow=block;dashed=1;endFill=0;endSize=12;html=1;fontFamily=Lucida Console;" parent="1" source="23" target="14" edge="1">
                    <mxGeometry width="160" relative="1" as="geometry">
                        <mxPoint x="160" y="784" as="sourcePoint"/>
                        <mxPoint x="220.30534351145047" y="680" as="targetPoint"/>
                    </mxGeometry>
                </mxCell>
                <mxCell id="23" value="MeshNode" style="swimlane;fontStyle=1;align=center;verticalAlign=top;childLayout=stackLayout;horizontal=1;startSize=26;horizontalStack=0;resizeParent=1;resizeParentMax=0;resizeLast=0;collapsible=1;marginBottom=0;fontFamily=Lucida Console;" parent="1" vertex="1">
                    <mxGeometry x="-350" y="240" width="240" height="112" as="geometry"/>
                </mxCell>
                <mxCell id="24" value="mesh: shared_ptr&lt;MeshAsset&gt;" style="text;strokeColor=none;fillColor=none;align=left;verticalAlign=top;spacingLeft=4;spacingRight=4;overflow=hidden;rotatable=0;points=[[0,0.5],[1,0.5]];portConstraint=eastwest;fontFamily=Lucida Console;" parent="23" vertex="1">
                    <mxGeometry y="26" width="240" height="26" as="geometry"/>
                </mxCell>
                <mxCell id="28" value="" style="line;strokeWidth=1;fillColor=none;align=left;verticalAlign=middle;spacingTop=-1;spacingLeft=3;spacingRight=3;rotatable=0;labelPosition=right;points=[];portConstraint=eastwest;strokeColor=inherit;fontFamily=Lucida Console;" parent="23" vertex="1">
                    <mxGeometry y="52" width="240" height="8" as="geometry"/>
                </mxCell>
                <mxCell id="29" value="draw(): virtual void override" style="text;strokeColor=none;fillColor=none;align=left;verticalAlign=top;spacingLeft=4;spacingRight=4;overflow=hidden;rotatable=0;points=[[0,0.5],[1,0.5]];portConstraint=eastwest;fontFamily=Lucida Console;" parent="23" vertex="1">
                    <mxGeometry y="60" width="240" height="26" as="geometry"/>
                </mxCell>
                <mxCell id="30" value="updateTransdform(): void" style="text;strokeColor=none;fillColor=none;align=left;verticalAlign=top;spacingLeft=4;spacingRight=4;overflow=hidden;rotatable=0;points=[[0,0.5],[1,0.5]];portConstraint=eastwest;fontFamily=Lucida Console;" parent="23" vertex="1">
                    <mxGeometry y="86" width="240" height="26" as="geometry"/>
                </mxCell>
                <mxCell id="129" style="edgeStyle=none;html=1;" edge="1" parent="1" source="31" target="102">
                    <mxGeometry relative="1" as="geometry"/>
                </mxCell>
                <mxCell id="31" value="MeshAsset" style="swimlane;fontStyle=1;align=center;verticalAlign=top;childLayout=stackLayout;horizontal=1;startSize=26;horizontalStack=0;resizeParent=1;resizeParentMax=0;resizeLast=0;collapsible=1;marginBottom=0;fontFamily=Lucida Console;" parent="1" vertex="1">
                    <mxGeometry x="-370" y="390" width="260" height="112" as="geometry"/>
                </mxCell>
                <mxCell id="37" value="name: string" style="text;strokeColor=none;fillColor=none;align=left;verticalAlign=top;spacingLeft=4;spacingRight=4;overflow=hidden;rotatable=0;points=[[0,0.5],[1,0.5]];portConstraint=eastwest;fontFamily=Lucida Console;" parent="31" vertex="1">
                    <mxGeometry y="26" width="260" height="26" as="geometry"/>
                </mxCell>
                <mxCell id="38" value="surfaces: vector&lt;GeometrySurface&gt;" style="text;strokeColor=none;fillColor=none;align=left;verticalAlign=top;spacingLeft=4;spacingRight=4;overflow=hidden;rotatable=0;points=[[0,0.5],[1,0.5]];portConstraint=eastwest;fontFamily=Lucida Console;" parent="31" vertex="1">
                    <mxGeometry y="52" width="260" height="26" as="geometry"/>
                </mxCell>
                <mxCell id="32" value="mesh_buffers: GPUMeshBuffers" style="text;strokeColor=none;fillColor=none;align=left;verticalAlign=top;spacingLeft=4;spacingRight=4;overflow=hidden;rotatable=0;points=[[0,0.5],[1,0.5]];portConstraint=eastwest;fontFamily=Lucida Console;" parent="31" vertex="1">
                    <mxGeometry y="78" width="260" height="26" as="geometry"/>
                </mxCell>
                <mxCell id="33" value="" style="line;strokeWidth=1;fillColor=none;align=left;verticalAlign=middle;spacingTop=-1;spacingLeft=3;spacingRight=3;rotatable=0;labelPosition=right;points=[];portConstraint=eastwest;strokeColor=inherit;fontFamily=Lucida Console;" parent="31" vertex="1">
                    <mxGeometry y="104" width="260" height="8" as="geometry"/>
                </mxCell>
                <mxCell id="44" style="edgeStyle=none;html=1;fontFamily=Lucida Console;" parent="1" source="38" target="24" edge="1">
                    <mxGeometry relative="1" as="geometry"/>
                </mxCell>
                <mxCell id="51" style="edgeStyle=none;html=1;fontFamily=Lucida Console;" parent="1" source="45" target="38" edge="1">
                    <mxGeometry relative="1" as="geometry"/>
                </mxCell>
                <mxCell id="45" value="GeometrySurface" style="swimlane;fontStyle=1;align=center;verticalAlign=top;childLayout=stackLayout;horizontal=1;startSize=26;horizontalStack=0;resizeParent=1;resizeParentMax=0;resizeLast=0;collapsible=1;marginBottom=0;fontFamily=Lucida Console;" parent="1" vertex="1">
                    <mxGeometry x="-720" y="494" width="270" height="138" as="geometry"/>
                </mxCell>
                <mxCell id="46" value="start_index: uint32" style="text;strokeColor=none;fillColor=none;align=left;verticalAlign=top;spacingLeft=4;spacingRight=4;overflow=hidden;rotatable=0;points=[[0,0.5],[1,0.5]];portConstraint=eastwest;fontFamily=Lucida Console;" parent="45" vertex="1">
                    <mxGeometry y="26" width="270" height="26" as="geometry"/>
                </mxCell>
                <mxCell id="47" value="count: uint32" style="text;strokeColor=none;fillColor=none;align=left;verticalAlign=top;spacingLeft=4;spacingRight=4;overflow=hidden;rotatable=0;points=[[0,0.5],[1,0.5]];portConstraint=eastwest;fontFamily=Lucida Console;" parent="45" vertex="1">
                    <mxGeometry y="52" width="270" height="26" as="geometry"/>
                </mxCell>
                <mxCell id="48" value="bound: GeometryBound" style="text;strokeColor=none;fillColor=none;align=left;verticalAlign=top;spacingLeft=4;spacingRight=4;overflow=hidden;rotatable=0;points=[[0,0.5],[1,0.5]];portConstraint=eastwest;fontFamily=Lucida Console;" parent="45" vertex="1">
                    <mxGeometry y="78" width="270" height="26" as="geometry"/>
                </mxCell>
                <mxCell id="50" value="material: shared_ptr&lt;GLTFMaterial&gt;" style="text;strokeColor=none;fillColor=none;align=left;verticalAlign=top;spacingLeft=4;spacingRight=4;overflow=hidden;rotatable=0;points=[[0,0.5],[1,0.5]];portConstraint=eastwest;fontFamily=Lucida Console;" parent="45" vertex="1">
                    <mxGeometry y="104" width="270" height="26" as="geometry"/>
                </mxCell>
                <mxCell id="49" value="" style="line;strokeWidth=1;fillColor=none;align=left;verticalAlign=middle;spacingTop=-1;spacingLeft=3;spacingRight=3;rotatable=0;labelPosition=right;points=[];portConstraint=eastwest;strokeColor=inherit;fontFamily=Lucida Console;" parent="45" vertex="1">
                    <mxGeometry y="130" width="270" height="8" as="geometry"/>
                </mxCell>
                <mxCell id="58" style="edgeStyle=none;html=1;fontFamily=Lucida Console;" parent="1" source="52" target="32" edge="1">
                    <mxGeometry relative="1" as="geometry"/>
                </mxCell>
                <mxCell id="52" value="GPUMeshBuffers" style="swimlane;fontStyle=1;align=center;verticalAlign=top;childLayout=stackLayout;horizontal=1;startSize=26;horizontalStack=0;resizeParent=1;resizeParentMax=0;resizeLast=0;collapsible=1;marginBottom=0;fontFamily=Lucida Console;" parent="1" vertex="1">
                    <mxGeometry x="-370" y="542" width="300" height="112" as="geometry"/>
                </mxCell>
                <mxCell id="53" value="index_buffer: AllocatedBuffer" style="text;strokeColor=none;fillColor=none;align=left;verticalAlign=top;spacingLeft=4;spacingRight=4;overflow=hidden;rotatable=0;points=[[0,0.5],[1,0.5]];portConstraint=eastwest;fontFamily=Lucida Console;" parent="52" vertex="1">
                    <mxGeometry y="26" width="300" height="26" as="geometry"/>
                </mxCell>
                <mxCell id="54" value="vertex_buffer: AllocatedBuffer" style="text;strokeColor=none;fillColor=none;align=left;verticalAlign=top;spacingLeft=4;spacingRight=4;overflow=hidden;rotatable=0;points=[[0,0.5],[1,0.5]];portConstraint=eastwest;fontFamily=Lucida Console;" parent="52" vertex="1">
                    <mxGeometry y="52" width="300" height="26" as="geometry"/>
                </mxCell>
                <mxCell id="55" value="vertex_buffer_address: VkDeviceAddress" style="text;strokeColor=none;fillColor=none;align=left;verticalAlign=top;spacingLeft=4;spacingRight=4;overflow=hidden;rotatable=0;points=[[0,0.5],[1,0.5]];portConstraint=eastwest;fontFamily=Lucida Console;" parent="52" vertex="1">
                    <mxGeometry y="78" width="300" height="26" as="geometry"/>
                </mxCell>
                <mxCell id="57" value="" style="line;strokeWidth=1;fillColor=none;align=left;verticalAlign=middle;spacingTop=-1;spacingLeft=3;spacingRight=3;rotatable=0;labelPosition=right;points=[];portConstraint=eastwest;strokeColor=inherit;fontFamily=Lucida Console;" parent="52" vertex="1">
                    <mxGeometry y="104" width="300" height="8" as="geometry"/>
                </mxCell>
                <mxCell id="63" style="edgeStyle=none;html=1;fontFamily=Lucida Console;" parent="1" source="59" target="50" edge="1">
                    <mxGeometry relative="1" as="geometry"/>
                </mxCell>
                <mxCell id="127" style="edgeStyle=none;html=1;" edge="1" parent="1" source="59" target="121">
                    <mxGeometry relative="1" as="geometry"/>
                </mxCell>
                <mxCell id="59" value="GLTFMaterial" style="swimlane;fontStyle=1;align=center;verticalAlign=top;childLayout=stackLayout;horizontal=1;startSize=26;horizontalStack=0;resizeParent=1;resizeParentMax=0;resizeLast=0;collapsible=1;marginBottom=0;fontFamily=Lucida Console;" parent="1" vertex="1">
                    <mxGeometry x="-690" y="747" width="190" height="60" as="geometry"/>
                </mxCell>
                <mxCell id="60" value="data: MaterialInstance" style="text;strokeColor=none;fillColor=none;align=left;verticalAlign=top;spacingLeft=4;spacingRight=4;overflow=hidden;rotatable=0;points=[[0,0.5],[1,0.5]];portConstraint=eastwest;fontFamily=Lucida Console;" parent="59" vertex="1">
                    <mxGeometry y="26" width="190" height="26" as="geometry"/>
                </mxCell>
                <mxCell id="61" value="" style="line;strokeWidth=1;fillColor=none;align=left;verticalAlign=middle;spacingTop=-1;spacingLeft=3;spacingRight=3;rotatable=0;labelPosition=right;points=[];portConstraint=eastwest;strokeColor=inherit;fontFamily=Lucida Console;" parent="59" vertex="1">
                    <mxGeometry y="52" width="190" height="8" as="geometry"/>
                </mxCell>
                <mxCell id="67" style="edgeStyle=none;html=1;fontFamily=Lucida Console;" parent="1" source="64" target="60" edge="1">
                    <mxGeometry relative="1" as="geometry"/>
                </mxCell>
                <mxCell id="64" value="MaterialInstance" style="swimlane;fontStyle=1;align=center;verticalAlign=top;childLayout=stackLayout;horizontal=1;startSize=26;horizontalStack=0;resizeParent=1;resizeParentMax=0;resizeLast=0;collapsible=1;marginBottom=0;fontFamily=Lucida Console;" parent="1" vertex="1">
                    <mxGeometry x="-970" y="730" width="240" height="112" as="geometry"/>
                </mxCell>
                <mxCell id="69" value="ds: VkDescriptorSet" style="text;strokeColor=none;fillColor=none;align=left;verticalAlign=top;spacingLeft=4;spacingRight=4;overflow=hidden;rotatable=0;points=[[0,0.5],[1,0.5]];portConstraint=eastwest;fontFamily=Lucida Console;" parent="64" vertex="1">
                    <mxGeometry y="26" width="240" height="26" as="geometry"/>
                </mxCell>
                <mxCell id="68" value="p_pipeline: MaterialPipeline*" style="text;strokeColor=none;fillColor=none;align=left;verticalAlign=top;spacingLeft=4;spacingRight=4;overflow=hidden;rotatable=0;points=[[0,0.5],[1,0.5]];portConstraint=eastwest;fontFamily=Lucida Console;" parent="64" vertex="1">
                    <mxGeometry y="52" width="240" height="26" as="geometry"/>
                </mxCell>
                <mxCell id="65" value="pass_type: MaterialPass" style="text;strokeColor=none;fillColor=none;align=left;verticalAlign=top;spacingLeft=4;spacingRight=4;overflow=hidden;rotatable=0;points=[[0,0.5],[1,0.5]];portConstraint=eastwest;fontFamily=Lucida Console;" parent="64" vertex="1">
                    <mxGeometry y="78" width="240" height="26" as="geometry"/>
                </mxCell>
                <mxCell id="66" value="" style="line;strokeWidth=1;fillColor=none;align=left;verticalAlign=middle;spacingTop=-1;spacingLeft=3;spacingRight=3;rotatable=0;labelPosition=right;points=[];portConstraint=eastwest;strokeColor=inherit;fontFamily=Lucida Console;" parent="64" vertex="1">
                    <mxGeometry y="104" width="240" height="8" as="geometry"/>
                </mxCell>
                <mxCell id="79" style="edgeStyle=none;html=1;fontFamily=Lucida Console;" parent="1" source="74" target="68" edge="1">
                    <mxGeometry relative="1" as="geometry"/>
                </mxCell>
                <mxCell id="74" value="MaterialPipeline" style="swimlane;fontStyle=1;align=center;verticalAlign=top;childLayout=stackLayout;horizontal=1;startSize=26;horizontalStack=0;resizeParent=1;resizeParentMax=0;resizeLast=0;collapsible=1;marginBottom=0;fontFamily=Lucida Console;" parent="1" vertex="1">
                    <mxGeometry x="-1110" y="883" width="220" height="86" as="geometry"/>
                </mxCell>
                <mxCell id="75" value="pipeline: VkPipeline" style="text;strokeColor=none;fillColor=none;align=left;verticalAlign=top;spacingLeft=4;spacingRight=4;overflow=hidden;rotatable=0;points=[[0,0.5],[1,0.5]];portConstraint=eastwest;fontFamily=Lucida Console;" parent="74" vertex="1">
                    <mxGeometry y="26" width="220" height="26" as="geometry"/>
                </mxCell>
                <mxCell id="78" value="layout: VkPipelineLayout" style="text;strokeColor=none;fillColor=none;align=left;verticalAlign=top;spacingLeft=4;spacingRight=4;overflow=hidden;rotatable=0;points=[[0,0.5],[1,0.5]];portConstraint=eastwest;fontFamily=Lucida Console;" parent="74" vertex="1">
                    <mxGeometry y="52" width="220" height="26" as="geometry"/>
                </mxCell>
                <mxCell id="76" value="" style="line;strokeWidth=1;fillColor=none;align=left;verticalAlign=middle;spacingTop=-1;spacingLeft=3;spacingRight=3;rotatable=0;labelPosition=right;points=[];portConstraint=eastwest;strokeColor=inherit;fontFamily=Lucida Console;" parent="74" vertex="1">
                    <mxGeometry y="78" width="220" height="8" as="geometry"/>
                </mxCell>
                <mxCell id="85" style="edgeStyle=none;html=1;fontFamily=Lucida Console;" parent="1" source="80" target="65" edge="1">
                    <mxGeometry relative="1" as="geometry"/>
                </mxCell>
                <mxCell id="80" value="enum class MaterialPass" style="swimlane;fontStyle=1;align=center;verticalAlign=top;childLayout=stackLayout;horizontal=1;startSize=26;horizontalStack=0;resizeParent=1;resizeParentMax=0;resizeLast=0;collapsible=1;marginBottom=0;fontFamily=Lucida Console;" parent="1" vertex="1">
                    <mxGeometry x="-810" y="883" width="220" height="112" as="geometry"/>
                </mxCell>
                <mxCell id="81" value="BasicMainColor" style="text;strokeColor=none;fillColor=none;align=left;verticalAlign=top;spacingLeft=4;spacingRight=4;overflow=hidden;rotatable=0;points=[[0,0.5],[1,0.5]];portConstraint=eastwest;fontFamily=Lucida Console;" parent="80" vertex="1">
                    <mxGeometry y="26" width="220" height="26" as="geometry"/>
                </mxCell>
                <mxCell id="82" value="BasicTransparent" style="text;strokeColor=none;fillColor=none;align=left;verticalAlign=top;spacingLeft=4;spacingRight=4;overflow=hidden;rotatable=0;points=[[0,0.5],[1,0.5]];portConstraint=eastwest;fontFamily=Lucida Console;" parent="80" vertex="1">
                    <mxGeometry y="52" width="220" height="26" as="geometry"/>
                </mxCell>
                <mxCell id="84" value="Others" style="text;strokeColor=none;fillColor=none;align=left;verticalAlign=top;spacingLeft=4;spacingRight=4;overflow=hidden;rotatable=0;points=[[0,0.5],[1,0.5]];portConstraint=eastwest;fontFamily=Lucida Console;" parent="80" vertex="1">
                    <mxGeometry y="78" width="220" height="26" as="geometry"/>
                </mxCell>
                <mxCell id="83" value="" style="line;strokeWidth=1;fillColor=none;align=left;verticalAlign=middle;spacingTop=-1;spacingLeft=3;spacingRight=3;rotatable=0;labelPosition=right;points=[];portConstraint=eastwest;strokeColor=inherit;fontFamily=Lucida Console;" parent="80" vertex="1">
                    <mxGeometry y="104" width="220" height="8" as="geometry"/>
                </mxCell>
                <mxCell id="92" style="edgeStyle=none;html=1;fontFamily=Lucida Console;" parent="1" source="86" target="48" edge="1">
                    <mxGeometry relative="1" as="geometry"/>
                </mxCell>
                <mxCell id="86" value="GeometryBound" style="swimlane;fontStyle=1;align=center;verticalAlign=top;childLayout=stackLayout;horizontal=1;startSize=26;horizontalStack=0;resizeParent=1;resizeParentMax=0;resizeLast=0;collapsible=1;marginBottom=0;fontFamily=Lucida Console;" parent="1" vertex="1">
                    <mxGeometry x="-1020" y="542" width="270" height="86" as="geometry"/>
                </mxCell>
                <mxCell id="87" value="origin: vec3" style="text;strokeColor=none;fillColor=none;align=left;verticalAlign=top;spacingLeft=4;spacingRight=4;overflow=hidden;rotatable=0;points=[[0,0.5],[1,0.5]];portConstraint=eastwest;fontFamily=Lucida Console;" parent="86" vertex="1">
                    <mxGeometry y="26" width="270" height="26" as="geometry"/>
                </mxCell>
                <mxCell id="88" value="radius: float" style="text;strokeColor=none;fillColor=none;align=left;verticalAlign=top;spacingLeft=4;spacingRight=4;overflow=hidden;rotatable=0;points=[[0,0.5],[1,0.5]];portConstraint=eastwest;fontFamily=Lucida Console;" parent="86" vertex="1">
                    <mxGeometry y="52" width="270" height="26" as="geometry"/>
                </mxCell>
                <mxCell id="91" value="" style="line;strokeWidth=1;fillColor=none;align=left;verticalAlign=middle;spacingTop=-1;spacingLeft=3;spacingRight=3;rotatable=0;labelPosition=right;points=[];portConstraint=eastwest;strokeColor=inherit;fontFamily=Lucida Console;" parent="86" vertex="1">
                    <mxGeometry y="78" width="270" height="8" as="geometry"/>
                </mxCell>
                <mxCell id="99" style="edgeStyle=none;html=1;fontFamily=Lucida Console;" parent="1" source="93" target="53" edge="1">
                    <mxGeometry relative="1" as="geometry"/>
                </mxCell>
                <mxCell id="100" style="edgeStyle=none;html=1;fontFamily=Lucida Console;" parent="1" source="93" target="54" edge="1">
                    <mxGeometry relative="1" as="geometry"/>
                </mxCell>
                <mxCell id="124" style="edgeStyle=none;html=1;fontFamily=Lucida Console;" parent="1" source="93" target="125" edge="1">
                    <mxGeometry relative="1" as="geometry"/>
                </mxCell>
                <mxCell id="93" value="AllocatedBuffer" style="swimlane;fontStyle=1;align=center;verticalAlign=top;childLayout=stackLayout;horizontal=1;startSize=26;horizontalStack=0;resizeParent=1;resizeParentMax=0;resizeLast=0;collapsible=1;marginBottom=0;fontFamily=Lucida Console;" parent="1" vertex="1">
                    <mxGeometry x="10" y="529" width="260" height="112" as="geometry"/>
                </mxCell>
                <mxCell id="94" value="buffer: VkBuffer" style="text;strokeColor=none;fillColor=none;align=left;verticalAlign=top;spacingLeft=4;spacingRight=4;overflow=hidden;rotatable=0;points=[[0,0.5],[1,0.5]];portConstraint=eastwest;fontFamily=Lucida Console;" parent="93" vertex="1">
                    <mxGeometry y="26" width="260" height="26" as="geometry"/>
                </mxCell>
                <mxCell id="97" value="allocation: VmaAllocation" style="text;strokeColor=none;fillColor=none;align=left;verticalAlign=top;spacingLeft=4;spacingRight=4;overflow=hidden;rotatable=0;points=[[0,0.5],[1,0.5]];portConstraint=eastwest;fontFamily=Lucida Console;" parent="93" vertex="1">
                    <mxGeometry y="52" width="260" height="26" as="geometry"/>
                </mxCell>
                <mxCell id="98" value="alloc_info: VmaAllocationInfo" style="text;strokeColor=none;fillColor=none;align=left;verticalAlign=top;spacingLeft=4;spacingRight=4;overflow=hidden;rotatable=0;points=[[0,0.5],[1,0.5]];portConstraint=eastwest;fontFamily=Lucida Console;" parent="93" vertex="1">
                    <mxGeometry y="78" width="260" height="26" as="geometry"/>
                </mxCell>
                <mxCell id="95" value="" style="line;strokeWidth=1;fillColor=none;align=left;verticalAlign=middle;spacingTop=-1;spacingLeft=3;spacingRight=3;rotatable=0;labelPosition=right;points=[];portConstraint=eastwest;strokeColor=inherit;fontFamily=Lucida Console;" parent="93" vertex="1">
                    <mxGeometry y="104" width="260" height="8" as="geometry"/>
                </mxCell>
                <mxCell id="101" value="LoadedGLTF" style="swimlane;fontStyle=1;align=center;verticalAlign=top;childLayout=stackLayout;horizontal=1;startSize=26;horizontalStack=0;resizeParent=1;resizeParentMax=0;resizeLast=0;collapsible=1;marginBottom=0;fontFamily=Lucida Console;" parent="1" vertex="1">
                    <mxGeometry x="430" y="438" width="330" height="320" as="geometry"/>
                </mxCell>
                <mxCell id="106" value="nodes: umap&lt;str, s_ptr&lt;Node&gt;&gt;" style="text;strokeColor=none;fillColor=none;align=left;verticalAlign=top;spacingLeft=4;spacingRight=4;overflow=hidden;rotatable=0;points=[[0,0.5],[1,0.5]];portConstraint=eastwest;fontFamily=Lucida Console;" parent="101" vertex="1">
                    <mxGeometry y="26" width="330" height="26" as="geometry"/>
                </mxCell>
                <mxCell id="107" value="top_nodes: vector&lt;s_ptr&lt;Node&gt;&gt;" style="text;strokeColor=none;fillColor=none;align=left;verticalAlign=top;spacingLeft=4;spacingRight=4;overflow=hidden;rotatable=0;points=[[0,0.5],[1,0.5]];portConstraint=eastwest;fontFamily=Lucida Console;" parent="101" vertex="1">
                    <mxGeometry y="52" width="330" height="26" as="geometry"/>
                </mxCell>
                <mxCell id="102" value="meshes: umap&lt;str, s_ptr&lt;MeshAsset&gt;&gt;" style="text;strokeColor=none;fillColor=none;align=left;verticalAlign=top;spacingLeft=4;spacingRight=4;overflow=hidden;rotatable=0;points=[[0,0.5],[1,0.5]];portConstraint=eastwest;fontFamily=Lucida Console;" parent="101" vertex="1">
                    <mxGeometry y="78" width="330" height="26" as="geometry"/>
                </mxCell>
                <mxCell id="118" value="images: umap&lt;str, AllocatedImage&gt;" style="text;strokeColor=none;fillColor=none;align=left;verticalAlign=top;spacingLeft=4;spacingRight=4;overflow=hidden;rotatable=0;points=[[0,0.5],[1,0.5]];portConstraint=eastwest;fontFamily=Lucida Console;" parent="101" vertex="1">
                    <mxGeometry y="104" width="330" height="26" as="geometry"/>
                </mxCell>
                <mxCell id="125" value="material_constants_buffer: AllocatedBuffer" style="text;strokeColor=none;fillColor=none;align=left;verticalAlign=top;spacingLeft=4;spacingRight=4;overflow=hidden;rotatable=0;points=[[0,0.5],[1,0.5]];portConstraint=eastwest;fontFamily=Lucida Console;" parent="101" vertex="1">
                    <mxGeometry y="130" width="330" height="26" as="geometry"/>
                </mxCell>
                <mxCell id="121" value="materials: umap&lt;str, s_ptr&lt;GLTFMaterial&gt;&gt;" style="text;strokeColor=none;fillColor=none;align=left;verticalAlign=top;spacingLeft=4;spacingRight=4;overflow=hidden;rotatable=0;points=[[0,0.5],[1,0.5]];portConstraint=eastwest;fontFamily=Lucida Console;" parent="101" vertex="1">
                    <mxGeometry y="156" width="330" height="26" as="geometry"/>
                </mxCell>
                <mxCell id="122" value="samplers: vector&lt;VkSampler&gt;" style="text;strokeColor=none;fillColor=none;align=left;verticalAlign=top;spacingLeft=4;spacingRight=4;overflow=hidden;rotatable=0;points=[[0,0.5],[1,0.5]];portConstraint=eastwest;fontFamily=Lucida Console;" parent="101" vertex="1">
                    <mxGeometry y="182" width="330" height="26" as="geometry"/>
                </mxCell>
                <mxCell id="123" value="descriptor_pool: DescriptorAllocator" style="text;strokeColor=none;fillColor=none;align=left;verticalAlign=top;spacingLeft=4;spacingRight=4;overflow=hidden;rotatable=0;points=[[0,0.5],[1,0.5]];portConstraint=eastwest;fontFamily=Lucida Console;" parent="101" vertex="1">
                    <mxGeometry y="208" width="330" height="26" as="geometry"/>
                </mxCell>
                <mxCell id="119" value="creator: Engine" style="text;strokeColor=none;fillColor=none;align=left;verticalAlign=top;spacingLeft=4;spacingRight=4;overflow=hidden;rotatable=0;points=[[0,0.5],[1,0.5]];portConstraint=eastwest;fontFamily=Lucida Console;" parent="101" vertex="1">
                    <mxGeometry y="234" width="330" height="26" as="geometry"/>
                </mxCell>
                <mxCell id="103" value="" style="line;strokeWidth=1;fillColor=none;align=left;verticalAlign=middle;spacingTop=-1;spacingLeft=3;spacingRight=3;rotatable=0;labelPosition=right;points=[];portConstraint=eastwest;strokeColor=inherit;fontFamily=Lucida Console;" parent="101" vertex="1">
                    <mxGeometry y="260" width="330" height="8" as="geometry"/>
                </mxCell>
                <mxCell id="104" value="draw(): public virtual void override" style="text;strokeColor=none;fillColor=none;align=left;verticalAlign=top;spacingLeft=4;spacingRight=4;overflow=hidden;rotatable=0;points=[[0,0.5],[1,0.5]];portConstraint=eastwest;fontFamily=Lucida Console;" parent="101" vertex="1">
                    <mxGeometry y="268" width="330" height="26" as="geometry"/>
                </mxCell>
                <mxCell id="126" value="clearAll(): private void" style="text;strokeColor=none;fillColor=none;align=left;verticalAlign=top;spacingLeft=4;spacingRight=4;overflow=hidden;rotatable=0;points=[[0,0.5],[1,0.5]];portConstraint=eastwest;fontFamily=Lucida Console;" parent="101" vertex="1">
                    <mxGeometry y="294" width="330" height="26" as="geometry"/>
                </mxCell>
                <mxCell id="105" value="" style="endArrow=block;dashed=1;endFill=0;endSize=12;html=1;fontFamily=Lucida Console;" parent="1" source="101" target="9" edge="1">
                    <mxGeometry width="160" relative="1" as="geometry">
                        <mxPoint x="295.9183673469388" y="540" as="sourcePoint"/>
                        <mxPoint x="379.18367346938794" y="420" as="targetPoint"/>
                    </mxGeometry>
                </mxCell>
                <mxCell id="113" style="edgeStyle=none;html=1;fontFamily=Lucida Console;" parent="1" source="108" target="118" edge="1">
                    <mxGeometry relative="1" as="geometry"/>
                </mxCell>
                <mxCell id="108" value="AllocatedImage" style="swimlane;fontStyle=1;align=center;verticalAlign=top;childLayout=stackLayout;horizontal=1;startSize=26;horizontalStack=0;resizeParent=1;resizeParentMax=0;resizeLast=0;collapsible=1;marginBottom=0;fontFamily=Lucida Console;" parent="1" vertex="1">
                    <mxGeometry x="890" y="473" width="260" height="164" as="geometry"/>
                </mxCell>
                <mxCell id="109" value="image: VkImage" style="text;strokeColor=none;fillColor=none;align=left;verticalAlign=top;spacingLeft=4;spacingRight=4;overflow=hidden;rotatable=0;points=[[0,0.5],[1,0.5]];portConstraint=eastwest;fontFamily=Lucida Console;" parent="108" vertex="1">
                    <mxGeometry y="26" width="260" height="26" as="geometry"/>
                </mxCell>
                <mxCell id="114" value="view: VkImageView" style="text;strokeColor=none;fillColor=none;align=left;verticalAlign=top;spacingLeft=4;spacingRight=4;overflow=hidden;rotatable=0;points=[[0,0.5],[1,0.5]];portConstraint=eastwest;fontFamily=Lucida Console;" parent="108" vertex="1">
                    <mxGeometry y="52" width="260" height="26" as="geometry"/>
                </mxCell>
                <mxCell id="115" value="extent: VkExtent3D" style="text;strokeColor=none;fillColor=none;align=left;verticalAlign=top;spacingLeft=4;spacingRight=4;overflow=hidden;rotatable=0;points=[[0,0.5],[1,0.5]];portConstraint=eastwest;fontFamily=Lucida Console;" parent="108" vertex="1">
                    <mxGeometry y="78" width="260" height="26" as="geometry"/>
                </mxCell>
                <mxCell id="116" value="format: VkFormat" style="text;strokeColor=none;fillColor=none;align=left;verticalAlign=top;spacingLeft=4;spacingRight=4;overflow=hidden;rotatable=0;points=[[0,0.5],[1,0.5]];portConstraint=eastwest;fontFamily=Lucida Console;" parent="108" vertex="1">
                    <mxGeometry y="104" width="260" height="26" as="geometry"/>
                </mxCell>
                <mxCell id="110" value="allocation: VmaAllocation" style="text;strokeColor=none;fillColor=none;align=left;verticalAlign=top;spacingLeft=4;spacingRight=4;overflow=hidden;rotatable=0;points=[[0,0.5],[1,0.5]];portConstraint=eastwest;fontFamily=Lucida Console;" parent="108" vertex="1">
                    <mxGeometry y="130" width="260" height="26" as="geometry"/>
                </mxCell>
                <mxCell id="112" value="" style="line;strokeWidth=1;fillColor=none;align=left;verticalAlign=middle;spacingTop=-1;spacingLeft=3;spacingRight=3;rotatable=0;labelPosition=right;points=[];portConstraint=eastwest;strokeColor=inherit;fontFamily=Lucida Console;" parent="108" vertex="1">
                    <mxGeometry y="156" width="260" height="8" as="geometry"/>
                </mxCell>
            </root>
        </mxGraphModel>
    </diagram>
</mxfile>